<?xml version="1.0" standalone="no"?>
<!DOCTYPE svg PUBLIC "-//W3C//DTD SVG 20010904//EN"
 "http://www.w3.org/TR/2001/REC-SVG-20010904/DTD/svg10.dtd">
<svg version="1.0" xmlns="http://www.w3.org/2000/svg"
 width="1024.000000pt" height="1024.000000pt" viewBox="0 0 1024.000000 1024.000000"
 preserveAspectRatio="xMidYMid meet">

<g transform="translate(0.000000,1024.000000) scale(0.100000,-0.100000)"
fill="#000000" stroke="none">
<path d="M4565 8428 c-11 -6 -36 -25 -55 -43 -19 -18 -53 -38 -75 -45 -230
-71 -458 -311 -554 -582 -35 -99 -36 -108 -36 -238 0 -127 2 -141 33 -230 77
-222 214 -402 401 -529 l61 -42 0 -121 0 -122 75 -75 76 -75 14 28 c8 15 42
55 75 88 l60 61 0 273 0 274 -57 29 c-32 16 -77 43 -100 60 -56 41 -129 134
-150 193 -20 57 -26 59 -184 57 -81 0 -124 3 -134 11 -25 21 -38 83 -34 163 6
114 10 117 178 117 75 0 141 4 147 8 5 4 27 35 48 69 48 81 121 144 213 185
l74 33 -3 146 c-2 112 0 150 11 162 11 14 32 17 107 17 125 0 124 1 124 -187
l0 -143 55 -24 c104 -47 196 -133 237 -223 l19 -43 179 0 178 0 32 57 31 57
-22 53 c-80 197 -298 411 -494 484 -33 13 -71 34 -84 48 -56 59 -62 61 -251
61 -108 -1 -183 -5 -195 -12z"/>
<path d="M6765 8364 c-387 -45 -692 -189 -937 -442 -131 -135 -277 -360 -326
-502 l-11 -30 -104 0 c-57 0 -124 -3 -148 -6 -43 -6 -45 -8 -77 -76 -41 -87
-125 -171 -214 -217 l-65 -33 -7 -75 c-3 -42 -6 -165 -6 -273 0 -224 -7 -202
100 -313 l55 -57 70 64 70 63 3 130 4 129 60 39 c34 21 85 61 115 88 29 27 56
47 59 44 3 -3 6 -94 7 -203 l2 -199 -38 -80 c-21 -44 -61 -118 -89 -165 -41
-70 -63 -94 -122 -138 -105 -77 -260 -197 -368 -285 l-96 -77 -59 62 c-33 35
-133 142 -223 238 -90 96 -339 357 -554 579 -215 222 -394 409 -398 415 -3 6
5 45 19 86 73 218 20 436 -147 601 -118 118 -245 169 -420 169 -199 0 -362
-81 -479 -238 -73 -97 -102 -182 -108 -317 -9 -190 38 -314 172 -450 127 -128
237 -175 415 -175 109 0 184 17 269 60 l59 29 211 -214 210 -215 -574 0 -575
0 -32 -28 c-30 -27 -32 -33 -35 -113 -7 -150 24 -177 205 -178 116 -1 108 7
93 -99 -6 -37 -13 -93 -16 -124 -4 -32 -11 -58 -16 -58 -6 0 -51 -20 -101 -45
-50 -25 -96 -45 -102 -45 -6 0 -33 11 -60 25 -80 40 -90 37 -194 -68 -50 -51
-92 -101 -92 -111 0 -10 14 -44 30 -75 l31 -57 -44 -66 c-24 -36 -55 -88 -68
-116 l-24 -51 -147 -1 c-81 0 -158 -4 -172 -10 -56 -21 -58 -30 -56 -376 0
-255 4 -322 15 -344 23 -44 68 -54 222 -47 l133 7 29 -58 c16 -31 49 -88 74
-126 l45 -69 -29 -61 c-16 -34 -29 -68 -29 -77 0 -9 41 -60 92 -114 88 -93 93
-97 126 -91 19 3 52 17 73 31 42 27 69 32 69 12 0 -6 -82 -100 -182 -207 -210
-226 -290 -329 -352 -455 -55 -111 -78 -180 -106 -315 -19 -91 -21 -128 -17
-280 3 -146 8 -191 29 -270 79 -296 275 -544 533 -673 154 -77 283 -103 473
-94 148 6 256 34 381 96 166 84 231 149 482 476 109 143 231 303 271 355 66
86 464 601 665 860 45 58 93 119 107 135 l26 30 878 -883 877 -882 54 0 54 0
88 88 c207 206 583 599 600 627 21 34 25 85 8 118 -15 30 -1508 1525 -1539
1542 -14 7 -56 16 -95 20 -79 8 -109 21 -146 62 -40 42 -49 66 -49 125 0 38 7
65 25 97 37 64 125 171 141 171 7 0 386 -370 840 -822 454 -453 845 -835 868
-851 88 -59 219 -81 338 -56 160 33 336 177 415 339 60 122 76 194 76 325 -2
250 -90 418 -312 590 -77 60 -100 88 -108 138 -7 49 12 92 52 117 30 18 50 20
261 20 126 0 246 5 266 10 20 6 46 22 58 37 19 25 20 37 20 472 0 486 1 470
-57 500 -15 8 -186 11 -565 12 -417 1 -536 4 -513 12 55 21 229 108 280 140
292 183 515 471 624 804 57 173 76 298 75 493 0 189 -13 286 -59 445 -45 156
-177 405 -215 405 -8 0 -66 -55 -129 -123 -156 -166 -491 -518 -622 -653 -106
-108 -110 -110 -156 -112 -78 -4 -200 16 -245 39 -66 33 -124 85 -167 147 -43
64 -91 155 -91 173 0 15 35 52 415 444 165 170 347 358 405 418 58 60 106 112
108 116 3 10 -113 75 -190 105 -180 71 -471 111 -653 90z m249 -313 c16 -6
-38 -65 -324 -356 l-343 -350 7 -100 c15 -225 89 -391 240 -539 160 -155 310
-206 610 -206 166 0 190 5 229 45 18 18 122 127 232 243 232 244 224 241 224
67 1 -230 -47 -403 -153 -560 -55 -81 -71 -100 -145 -174 -127 -125 -291 -209
-486 -249 -43 -8 -325 -10 -352 -2 -15 5 -74 23 -131 40 -113 35 -122 43 -141
123 -21 89 -82 196 -155 275 -126 134 -253 194 -450 210 l-80 7 -19 60 c-103
331 -31 726 183 1010 223 295 561 457 965 463 39 0 78 -3 89 -7z m-3967 -497
c131 -63 189 -221 129 -349 -28 -61 -109 -137 -164 -153 -21 -7 -63 -12 -92
-12 -77 0 -126 18 -182 68 -61 55 -89 108 -95 182 -12 127 62 236 190 282 66
23 142 17 214 -18z m4816 -1329 c-3 -9 -8 -14 -10 -11 -3 3 -2 9 2 15 9 16 15
13 8 -4z m-1961 -56 c208 -44 327 -256 258 -458 -27 -80 -48 -111 -230 -336
-79 -99 -152 -189 -160 -199 -8 -10 -27 -33 -41 -50 -190 -229 -829 -1034
-1229 -1546 -308 -397 -316 -407 -500 -645 -65 -84 -276 -361 -455 -596 -197
-260 -229 -297 -310 -354 -113 -80 -209 -109 -360 -109 -122 0 -185 14 -294
66 -66 32 -101 57 -161 117 -126 126 -192 269 -212 463 -29 275 47 541 207
723 86 97 739 776 1080 1124 297 302 482 454 872 718 152 102 214 150 568 437
148 121 287 233 308 250 106 85 191 159 270 236 97 94 164 137 241 156 66 16
84 16 148 3z m-1899 -359 c139 -140 273 -277 300 -306 l47 -51 -156 -119 c-85
-66 -164 -125 -174 -132 -17 -12 -20 -10 -36 20 -9 18 -39 66 -66 106 -53 79
-53 77 -17 160 l23 52 -99 100 c-69 69 -107 100 -123 100 -12 0 -46 -12 -74
-26 l-51 -26 -101 48 c-56 26 -102 48 -103 49 -4 2 -33 218 -33 246 0 34 3 34
243 33 l169 0 251 -254z m-813 -477 c145 -40 298 -167 363 -303 57 -117 57
-118 -6 -168 -54 -42 -302 -291 -505 -506 -101 -107 -103 -108 -140 -102 -123
19 -285 148 -353 281 -51 99 -64 155 -63 270 0 118 23 195 86 293 136 210 378
302 618 235z m5020 -423 l0 -180 -127 0 c-165 0 -232 -12 -318 -54 -130 -65
-214 -182 -236 -331 -28 -186 53 -361 222 -475 170 -116 243 -290 189 -450
-33 -98 -94 -170 -182 -216 -79 -40 -87 -37 -217 88 -226 219 -1403 1393
-1412 1410 -6 12 -2 25 17 47 14 17 22 36 18 42 -4 8 -3 9 5 5 12 -8 33 8 100
74 52 51 153 135 160 134 3 -1 5 2 4 7 -2 5 3 8 10 7 6 -2 11 3 9 10 -1 8 2
11 8 7 9 -6 -118 -156 -166 -195 -8 -8 -25 -32 -36 -54 -35 -68 -12 -145 55
-187 43 -26 71 -32 113 -25 35 7 126 94 444 429 l83 87 628 0 629 0 0 -180z
m-2851 -867 c16 -32 45 -77 65 -100 40 -46 143 -103 188 -103 15 0 28 -3 28
-7 0 -5 -45 -54 -99 -110 -74 -75 -102 -111 -110 -140 -31 -116 88 -216 206
-172 15 5 79 60 140 122 l113 112 95 -95 c52 -52 95 -98 95 -103 0 -5 -49 -60
-109 -122 -124 -127 -143 -165 -122 -234 14 -48 67 -96 115 -105 73 -14 109 6
224 125 58 60 111 109 117 109 6 0 57 -47 114 -104 l103 -104 -109 -112 c-59
-61 -116 -126 -125 -143 -38 -67 -8 -171 58 -202 17 -8 56 -15 86 -15 l53 0
127 132 127 133 136 -139 136 -139 -68 -71 c-37 -39 -117 -122 -176 -184
l-108 -114 -615 619 c-338 340 -699 702 -801 805 l-186 186 119 147 c65 81
125 156 133 166 7 10 15 19 17 19 2 0 17 -26 33 -57z"/>
<path d="M4574 4560 c-19 -8 -390 -385 -419 -427 -30 -42 -23 -113 15 -153 29
-31 33 -32 91 -28 l61 4 185 190 c256 263 261 271 229 349 -25 59 -101 90
-162 65z"/>
<path d="M2951 5036 c-48 -17 -108 -71 -133 -119 -17 -32 -23 -59 -23 -117 0
-64 4 -82 28 -123 77 -130 244 -163 368 -73 152 112 124 346 -51 425 -51 23
-136 26 -189 7z"/>
<path d="M4675 7657 c-22 -12 -50 -38 -63 -57 -20 -30 -23 -44 -20 -97 3 -42
11 -72 24 -90 25 -35 98 -73 139 -73 50 0 117 40 143 85 18 32 22 52 19 96 -4
68 -33 114 -91 140 -55 25 -102 24 -151 -4z"/>
<path d="M4704 6316 c-21 -9 -39 -29 -53 -59 l-22 -46 19 -44 c38 -85 136 -98
196 -26 19 22 26 42 26 73 0 50 -21 83 -66 102 -41 17 -60 17 -100 0z"/>
<path d="M1943 5978 c-84 -82 -102 -113 -86 -142 5 -8 46 -54 92 -101 62 -64
89 -85 109 -85 19 0 47 22 114 90 50 51 88 99 88 110 0 20 -139 184 -171 200
-39 21 -62 10 -146 -72z"/>
<path d="M8254 5844 c-33 -16 -64 -61 -64 -94 0 -29 26 -76 52 -94 48 -34 124
-10 152 48 20 42 20 50 0 91 -15 32 -65 65 -96 65 -7 0 -27 -7 -44 -16z"/>
<path d="M4723 2945 c-56 -24 -68 -55 -72 -187 l-3 -118 -42 -34 c-40 -32 -45
-33 -153 -39 -121 -7 -151 -18 -171 -63 -19 -40 -16 -527 3 -563 25 -49 74
-64 179 -56 l91 7 46 -36 c54 -40 59 -58 59 -206 0 -105 9 -129 60 -155 38
-20 511 -22 549 -2 54 27 64 57 70 198 l6 132 38 31 c38 31 40 31 152 31 100
0 117 3 142 21 51 38 53 50 53 312 0 205 -3 249 -16 278 -24 50 -50 64 -115
64 -127 0 -176 11 -219 47 l-40 35 0 104 c0 122 -13 164 -62 194 -31 19 -50
20 -278 20 -186 -1 -253 -4 -277 -15z m353 -531 c145 -69 158 -277 22 -354
-63 -36 -158 -35 -213 3 -66 44 -90 89 -90 167 0 56 4 73 28 108 52 79 171
115 253 76z"/>
</g>
</svg>
