<?xml version="1.0" standalone="no"?>
<!DOCTYPE svg PUBLIC "-//W3C//DTD SVG 20010904//EN"
 "http://www.w3.org/TR/2001/REC-SVG-20010904/DTD/svg10.dtd">
<svg version="1.0" xmlns="http://www.w3.org/2000/svg"
 width="1024.000000pt" height="1024.000000pt" viewBox="0 0 1024.000000 1024.000000"
 preserveAspectRatio="xMidYMid meet">

<g transform="translate(0.000000,1024.000000) scale(0.100000,-0.100000)"
fill="#000000" stroke="none">
<path d="M2845 9043 c-70 -6 -178 -33 -253 -64 -216 -86 -412 -298 -485 -524
-50 -153 -48 -69 -53 -2070 -3 -1028 -6 -1871 -8 -1872 -1 -2 -36 -12 -77 -22
-323 -83 -605 -407 -648 -746 l-6 -50 -70 -7 c-130 -12 -236 -63 -343 -166
-164 -158 -234 -384 -187 -607 25 -117 85 -226 179 -320 87 -88 140 -124 245
-164 l66 -26 426 -3 426 -3 5 -127 c5 -107 10 -140 35 -208 94 -260 308 -459
573 -531 61 -17 195 -18 2430 -18 l2365 0 98 34 c335 116 551 409 558 759 l2
92 394 0 c443 0 477 4 602 68 157 81 267 207 329 377 37 104 43 270 12 380
-33 120 -74 189 -170 286 -114 116 -242 179 -365 179 -22 0 -46 4 -53 8 -7 5
-17 37 -23 73 -21 135 -83 270 -188 407 -115 152 -290 270 -464 315 -33 9 -60
17 -62 19 -4 3 -7 1160 -6 1923 l1 491 61 13 c123 25 263 107 352 207 55 61
102 146 138 245 17 49 35 89 40 89 5 0 5 7 2 17 -4 11 -3 14 5 9 7 -4 12 -2
12 3 0 6 -4 11 -9 11 -6 0 -7 15 -4 33 14 86 13 86 -435 529 -860 852 -934
923 -970 943 -37 20 -57 20 -2237 21 -1210 0 -2218 -1 -2240 -3z m4417 -792
l3 -519 30 -43 c18 -26 50 -53 79 -68 l49 -25 506 -4 c278 -2 508 -6 510 -8 2
-2 -2 -30 -9 -61 -14 -67 -50 -142 -91 -194 -59 -75 -179 -129 -286 -129 -115
0 -196 -74 -206 -188 -3 -31 -4 -784 -3 -1672 1 -1784 -4 -1651 65 -1697 64
-43 147 -24 192 43 17 26 19 50 19 212 l0 182 23 0 c86 -1 224 -69 302 -151
89 -93 132 -217 119 -348 -6 -65 13 -111 59 -145 26 -19 43 -21 175 -21 135 0
151 -2 191 -23 185 -99 261 -322 171 -507 -53 -110 -161 -187 -287 -205 -37
-5 -220 -10 -405 -10 l-338 0 0 50 c0 68 -23 120 -67 150 -59 40 -143 27 -185
-31 -32 -43 -38 -94 -38 -355 0 -222 -2 -260 -20 -315 -52 -170 -182 -305
-349 -362 l-66 -22 -2270 -3 c-2501 -3 -2372 -6 -2504 59 -81 40 -184 141
-228 225 -59 111 -65 151 -67 444 -1 258 -2 266 -24 306 -30 51 -68 74 -122
74 -84 0 -140 -67 -140 -168 l0 -52 -342 0 c-189 0 -372 5 -407 10 -298 49
-418 416 -206 634 23 25 67 57 96 73 51 27 60 28 189 28 157 0 187 11 220 80
17 35 19 53 14 117 -11 131 41 258 144 349 62 55 175 109 246 116 l56 6 0
-355 c0 -345 1 -356 21 -382 62 -78 179 -72 231 13 l23 36 5 2450 c5 2348 6
2452 23 2505 57 168 159 291 299 359 46 22 108 45 138 50 32 5 992 9 2257 10
l2202 1 3 -519z m731 -271 c53 -52 97 -97 97 -102 0 -4 -124 -8 -275 -8 l-275
0 -1 228 c-1 125 -3 251 -4 281 l-4 54 182 -180 c100 -99 226 -222 280 -273z"/>
<path d="M4699 8410 c-59 -31 -69 -65 -69 -242 0 -183 1 -181 -117 -223 -43
-16 -129 -52 -192 -82 -63 -29 -121 -53 -130 -53 -9 0 -57 41 -106 91 -50 50
-107 99 -127 110 -41 21 -92 24 -132 9 -14 -5 -138 -121 -275 -259 -236 -235
-250 -251 -256 -293 -8 -55 17 -111 67 -153 18 -15 63 -56 100 -92 l67 -64
-49 -107 c-26 -59 -63 -150 -81 -202 -17 -52 -38 -102 -46 -110 -11 -12 -50
-16 -183 -20 -184 -5 -196 -9 -244 -74 -20 -27 -21 -40 -21 -384 l0 -357 23
-33 c40 -56 64 -62 235 -62 133 0 158 -3 176 -17 13 -11 37 -64 60 -128 21
-60 59 -151 84 -202 l46 -91 -67 -64 c-134 -127 -159 -155 -165 -186 -15 -73
-6 -85 237 -331 273 -275 292 -291 355 -291 59 0 87 18 200 125 104 98 88 96
221 30 47 -23 131 -59 187 -80 56 -20 108 -44 115 -52 8 -11 15 -61 18 -143 5
-119 7 -129 33 -163 42 -56 66 -59 435 -55 290 3 331 5 359 21 58 31 67 57 73
195 6 143 -1 134 123 183 45 18 136 58 201 90 66 32 126 55 132 51 7 -4 50
-43 96 -87 46 -44 94 -88 108 -98 32 -22 117 -23 150 -1 31 21 475 457 507
498 25 33 31 101 12 139 -6 12 -59 67 -117 123 l-106 101 43 89 c24 49 62 141
85 204 32 90 47 117 66 127 17 9 74 13 173 13 170 0 202 9 239 69 23 36 23 40
23 387 l0 351 -29 37 c-44 58 -73 66 -249 66 -181 0 -171 -6 -215 120 -16 47
-53 136 -81 198 -28 63 -51 117 -51 120 0 4 47 49 105 100 80 72 108 104 121
138 31 82 23 93 -252 366 -135 134 -255 248 -267 255 -27 15 -87 16 -124 2
-15 -5 -73 -55 -130 -110 -57 -55 -110 -99 -121 -99 -10 0 -70 24 -133 54 -63
29 -149 66 -192 81 -115 41 -117 45 -117 230 0 141 -2 154 -23 186 -45 68 -53
69 -432 69 -315 -1 -343 -2 -376 -20z m449 -830 c67 -41 89 -116 52 -178 -67
-110 -250 -63 -250 65 0 104 110 167 198 113z m-792 -335 c54 -35 76 -107 51
-167 -19 -45 -54 -69 -110 -75 -147 -17 -207 186 -74 248 47 22 94 20 133 -6z
m1601 0 c60 -39 80 -123 43 -182 -68 -113 -250 -62 -250 70 0 105 119 169 207
112z m-662 -189 c140 -39 288 -130 396 -243 152 -159 229 -369 215 -588 -7
-129 -26 -197 -86 -320 -105 -213 -282 -363 -505 -427 -69 -20 -102 -23 -235
-22 -136 0 -165 3 -236 25 -210 65 -409 233 -502 423 -63 130 -77 195 -77 366
1 175 10 218 77 355 108 221 332 393 579 445 68 14 304 5 374 -14z m-1365
-691 c70 -36 95 -109 61 -179 -44 -90 -166 -101 -230 -20 -33 41 -36 86 -12
138 34 69 113 96 181 61z m2423 0 c94 -46 102 -182 14 -235 -88 -54 -207 11
-207 114 0 103 101 166 193 121z m-1997 -884 c32 -20 64 -74 64 -110 0 -73
-62 -131 -141 -131 -76 0 -129 57 -129 141 0 35 6 48 39 80 34 35 44 39 87 39
30 0 61 -7 80 -19z m1593 5 c77 -40 91 -155 26 -216 -33 -31 -123 -40 -160
-16 -39 26 -65 75 -65 125 0 37 6 49 39 82 34 34 44 39 85 39 26 0 60 -7 75
-14z m-827 -306 c70 -20 112 -102 89 -173 -23 -69 -123 -107 -190 -73 -105 55
-89 220 24 249 32 8 38 7 77 -3z"/>
<path d="M2937 4616 c-102 -38 -153 -154 -112 -253 20 -48 41 -71 87 -94 81
-41 199 -14 254 58 60 79 37 214 -46 269 -47 31 -129 40 -183 20z"/>
<path d="M7120 4621 c-78 -24 -129 -81 -144 -160 -13 -72 27 -152 95 -190 124
-70 293 24 293 162 0 127 -126 224 -244 188z"/>
<path d="M2990 3904 c-89 -30 -126 -117 -81 -190 42 -69 -66 -64 1509 -62
1418 3 1421 3 1449 24 15 11 36 37 46 57 25 50 10 106 -40 144 l-36 28 -1416
2 c-779 1 -1423 -1 -1431 -3z"/>
<path d="M6325 3899 c-118 -34 -126 -195 -12 -238 46 -18 879 -15 921 3 47 20
76 61 76 108 0 54 -26 94 -75 118 -39 19 -62 20 -461 19 -230 0 -433 -5 -449
-10z"/>
<path d="M3004 3381 c-63 -38 -81 -98 -49 -165 32 -67 28 -66 487 -66 392 0
415 1 445 20 34 21 63 66 63 100 0 39 -29 89 -62 110 -32 19 -49 20 -443 20
-386 0 -412 -1 -441 -19z"/>
<path d="M4243 3380 c-41 -25 -56 -53 -55 -107 1 -54 15 -79 55 -103 31 -19
64 -20 1462 -20 1401 0 1431 0 1462 20 82 50 82 160 0 210 -31 20 -61 20
-1462 20 -1398 0 -1431 -1 -1462 -20z"/>
<path d="M2965 2880 c-11 -4 -31 -20 -45 -35 -33 -35 -35 -122 -5 -156 48 -52
-85 -49 2174 -49 1913 0 2103 1 2134 16 89 42 89 177 1 219 -28 13 -276 15
-2136 14 -1156 0 -2112 -4 -2123 -9z"/>
<path d="M2953 2365 c-77 -33 -95 -138 -34 -199 l31 -31 1441 -3 c1583 -2
1485 -6 1522 57 34 58 13 135 -46 171 -31 20 -61 20 -1457 20 -1201 -1 -1430
-3 -1457 -15z"/>
<path d="M6245 2373 c-79 -20 -118 -110 -80 -183 32 -61 32 -61 521 -60 244 0
455 5 468 9 30 12 63 54 71 92 9 39 -20 97 -64 126 l-34 23 -431 -1 c-237 -1
-440 -4 -451 -6z"/>
<path d="M1541 7750 c-73 -18 -122 -76 -129 -153 -6 -72 17 -120 73 -152 107
-64 249 2 263 120 6 57 -2 86 -34 125 -45 53 -109 75 -173 60z"/>
<path d="M1283 7170 c-24 -10 -63 -65 -63 -88 0 -8 7 -29 15 -47 45 -94 185
-57 185 49 0 57 -83 109 -137 86z"/>
<path d="M8835 7173 c-79 -18 -96 -142 -24 -178 42 -22 75 -18 111 14 27 24
33 36 33 70 0 63 -58 108 -120 94z"/>
<path d="M960 6698 c-59 -41 -75 -72 -75 -147 0 -58 4 -73 27 -103 97 -127
308 -55 308 103 0 58 -43 129 -93 152 -51 25 -127 22 -167 -5z"/>
<path d="M9045 6701 c-105 -65 -121 -187 -37 -272 85 -84 234 -49 277 66 30
78 -3 168 -76 205 -49 26 -124 26 -164 1z"/>
<path d="M945 6075 c-56 -55 -16 -155 60 -155 48 0 95 45 95 90 0 76 -102 119
-155 65z"/>
<path d="M9104 6077 c-39 -34 -40 -100 -1 -133 16 -13 40 -24 54 -24 35 0 80
29 93 60 35 85 -75 158 -146 97z"/>
<path d="M945 5569 c-139 -33 -174 -226 -55 -306 39 -27 121 -31 173 -9 94 39
124 158 64 247 -40 59 -109 85 -182 68z"/>
<path d="M9137 5566 c-75 -27 -117 -88 -117 -167 0 -153 175 -219 290 -110 42
39 57 87 46 145 -19 100 -128 165 -219 132z"/>
<path d="M975 4523 c-11 -3 -34 -16 -51 -28 -69 -53 -86 -162 -35 -232 30 -42
90 -73 139 -73 41 1 104 33 135 69 49 59 45 146 -10 212 -42 50 -107 69 -178
52z"/>
<path d="M9095 4516 c-100 -37 -140 -169 -78 -255 11 -14 40 -37 66 -50 83
-41 178 -9 226 77 19 35 22 52 17 87 -8 48 -38 98 -76 127 -35 25 -106 31
-155 14z"/>
<path d="M5002 1204 c-74 -38 -105 -155 -61 -234 36 -63 115 -97 183 -79 149
40 185 212 63 303 -37 28 -139 33 -185 10z"/>
</g>
</svg>
