<?xml version="1.0" standalone="no"?>
<!DOCTYPE svg PUBLIC "-//W3C//DTD SVG 20010904//EN"
 "http://www.w3.org/TR/2001/REC-SVG-20010904/DTD/svg10.dtd">
<svg version="1.0" xmlns="http://www.w3.org/2000/svg"
 width="1024.000000pt" height="1024.000000pt" viewBox="0 0 1024.000000 1024.000000"
 preserveAspectRatio="xMidYMid meet">

<g transform="translate(0.000000,1024.000000) scale(0.100000,-0.100000)"
fill="#000000" stroke="none">
<path d="M4865 8684 c-253 -26 -422 -54 -590 -100 -105 -28 -317 -98 -424
-140 l-74 -29 987 -3 988 -2 78 82 c44 45 78 83 77 84 -21 13 -317 72 -451 89
-116 15 -508 28 -591 19z"/>
<path d="M6773 8660 c-445 -63 -822 -421 -935 -890 -20 -79 -21 -123 -25 -622
l-5 -538 1111 0 1111 0 0 548 c0 502 -2 554 -20 639 -45 216 -133 382 -282
539 -152 158 -294 242 -496 295 -97 25 -141 31 -257 34 -77 2 -168 0 -202 -5z
m602 -245 c195 -102 315 -230 407 -435 62 -139 50 -220 -33 -220 -47 0 -62 15
-89 87 -75 201 -205 346 -396 441 -34 17 -64 38 -68 47 -11 30 -6 62 15 89 30
38 80 35 164 -9z"/>
<path d="M3385 8335 c-5 -2 -29 -9 -53 -15 -53 -14 -109 -62 -133 -115 -17
-37 -19 -84 -19 -727 0 -607 2 -691 16 -721 38 -80 145 -103 221 -48 60 43 79
72 215 326 226 420 295 520 496 726 79 80 148 152 153 160 5 8 9 33 9 57 0 73
-66 122 -144 108 -111 -21 -441 -359 -625 -640 -28 -43 -51 -82 -51 -87 0 -5
-4 -9 -10 -9 -7 0 -10 172 -10 495 l0 495 -27 -1 c-16 0 -32 -2 -38 -4z"/>
<path d="M2446 8119 c-86 -75 -36 -209 77 -209 47 0 104 48 113 95 22 117
-102 192 -190 114z"/>
<path d="M4732 7968 c-69 -38 -246 -185 -336 -279 -110 -115 -213 -254 -311
-419 -68 -114 -79 -139 -79 -180 -2 -87 67 -141 150 -118 49 13 75 42 156 174
135 222 253 361 496 584 92 86 102 98 102 130 0 47 -33 98 -75 116 -46 19 -55
18 -103 -8z"/>
<path d="M5246 7743 c-63 -33 -224 -160 -309 -242 -134 -129 -234 -258 -347
-449 -66 -112 -58 -190 24 -229 75 -35 140 6 220 137 110 181 283 375 441 495
44 33 96 76 117 96 34 33 38 42 38 86 0 28 -7 58 -16 71 -34 50 -112 66 -168
35z"/>
<path d="M2799 7648 c-355 -397 -598 -808 -754 -1272 -80 -237 -122 -416 -149
-631 -71 -565 -32 -1104 114 -1590 119 -395 289 -727 541 -1055 94 -123 97
-125 165 -125 l59 0 -5 360 c-11 759 -5 2903 8 3140 17 308 49 763 67 960 9
88 18 188 21 223 3 34 4 62 2 62 -3 0 -34 -33 -69 -72z"/>
<path d="M2002 7545 c-16 -13 -55 -66 -87 -117 -32 -51 -83 -130 -112 -174
-63 -95 -73 -135 -47 -189 17 -36 61 -65 100 -65 41 0 84 34 125 98 23 37 74
116 112 176 91 142 102 173 81 226 -28 70 -115 93 -172 45z"/>
<path d="M8364 7440 c-61 -24 -83 -119 -41 -180 40 -60 124 -65 178 -11 93 94
-13 241 -137 191z"/>
<path d="M3195 6336 c-150 -67 -123 -289 41 -326 22 -6 455 -10 989 -10 l951
0 0 103 c0 83 5 116 25 175 l25 72 -1000 0 c-814 -1 -1007 -3 -1031 -14z"/>
<path d="M5645 6339 c-101 -24 -183 -116 -192 -217 -8 -83 10 -135 65 -192 83
-86 -12 -80 1378 -80 1101 0 1228 2 1271 16 176 60 232 269 110 402 -12 13
-44 36 -72 50 l-50 27 -1235 2 c-736 1 -1251 -3 -1275 -8z"/>
<path d="M8804 6126 c-17 -8 -41 -27 -53 -42 -27 -34 -28 -29 24 -319 19 -110
40 -229 45 -264 14 -82 33 -118 74 -138 49 -23 97 -11 136 34 28 31 32 42 27
77 -13 106 -99 580 -109 601 -22 49 -92 74 -144 51z"/>
<path d="M1405 6098 c-33 -31 -36 -40 -60 -168 -70 -388 -79 -519 -60 -868 8
-156 19 -291 25 -302 19 -35 61 -60 101 -60 31 0 48 8 77 34 43 40 40 1 27
406 -9 283 -4 361 46 660 16 96 29 192 29 213 0 73 -40 116 -108 117 -34 0
-49 -6 -77 -32z"/>
<path d="M3206 5695 c-136 -48 -152 -230 -27 -307 l36 -23 1073 -3 1072 -3 0
176 0 175 -1057 0 c-872 -1 -1065 -3 -1097 -15z"/>
<path d="M5810 5568 c0 -41 58 -147 108 -197 32 -32 68 -55 106 -70 l58 -21
836 2 837 3 55 29 c30 16 72 47 94 68 34 36 84 126 101 186 l6 22 -1100 0
-1101 0 0 -22z"/>
<path d="M5636 5115 c-55 -19 -113 -80 -136 -142 -18 -50 -20 -79 -20 -377 0
-251 4 -343 16 -417 68 -398 376 -745 770 -868 54 -17 106 -31 116 -31 9 0 19
-4 22 -8 3 -5 1 -91 -5 -193 -5 -101 -15 -326 -24 -499 -8 -173 -19 -418 -26
-545 -10 -200 -10 -235 4 -265 13 -31 315 -464 416 -597 63 -82 149 -91 217
-21 35 36 344 495 371 552 16 34 16 74 0 684 -10 356 -20 700 -23 765 -6 113
-6 117 14 117 11 0 74 14 139 30 211 54 381 155 530 315 176 188 278 419 303
684 15 164 13 575 -4 639 -31 117 -123 191 -237 192 -67 0 -146 -36 -182 -83
-64 -84 -61 -70 -68 -462 -5 -341 -7 -363 -28 -425 -59 -166 -149 -286 -285
-377 -59 -40 -177 -93 -205 -93 -7 0 -31 232 -31 296 0 13 14 28 38 41 115 66
211 200 246 346 l6 27 -674 0 -674 0 9 -42 c14 -66 74 -181 124 -235 24 -28
69 -67 100 -88 55 -38 56 -40 51 -79 -3 -23 -8 -79 -11 -126 -9 -123 -12 -131
-44 -124 -41 10 -139 61 -190 98 -123 91 -212 212 -258 351 -26 79 -27 84 -32
445 l-6 365 -27 46 c-27 46 -79 89 -131 108 -39 15 -124 13 -171 -4z"/>
<path d="M3270 5060 c-115 -9 -174 -66 -173 -165 0 -80 34 -130 106 -160 32
-13 154 -15 989 -15 l954 0 11 98 c7 53 22 128 33 165 12 38 20 71 18 73 -6 6
-1864 10 -1938 4z"/>
<path d="M6181 4983 c0 -16 8 -91 17 -168 l18 -140 684 0 684 0 18 140 c9 77
17 152 17 168 l1 27 -720 0 -720 0 1 -27z"/>
<path d="M3182 4399 c-50 -25 -70 -52 -83 -109 -18 -78 27 -167 98 -196 27
-12 207 -14 1013 -14 539 0 980 3 980 8 0 4 -7 42 -15 85 -8 43 -15 100 -15
125 0 26 -3 64 -6 85 l-7 37 -961 0 -961 0 -43 -21z"/>
<path d="M1468 4264 c-32 -17 -58 -61 -58 -98 0 -14 16 -78 36 -143 20 -65 50
-167 66 -226 37 -132 64 -167 128 -167 51 0 97 30 116 75 15 37 16 33 -41 225
-24 80 -51 172 -60 205 -25 86 -42 115 -80 131 -43 18 -73 17 -107 -2z"/>
<path d="M8804 4270 c-32 -13 -72 -67 -85 -113 -6 -23 -35 -116 -64 -207 -68
-211 -67 -206 -48 -252 36 -91 167 -88 207 4 29 68 146 438 146 463 0 79 -83
135 -156 105z"/>
<path d="M3194 3761 c-76 -34 -115 -114 -94 -192 13 -46 59 -102 97 -118 20
-8 364 -12 1181 -13 633 -2 1152 -2 1152 0 0 2 -27 40 -61 85 -34 45 -82 120
-108 167 l-47 85 -1039 2 c-998 3 -1042 2 -1081 -16z"/>
<path d="M1812 3220 c-40 -25 -55 -61 -49 -119 15 -135 217 -131 231 6 11 100
-95 166 -182 113z"/>
<path d="M8446 3207 c-19 -18 -38 -46 -42 -61 -9 -39 12 -101 43 -125 51 -41
146 -19 179 41 30 54 7 135 -46 163 -49 25 -94 19 -134 -18z"/>
<path d="M3355 3130 c-136 -5 -153 -7 -182 -28 -36 -25 -67 -65 -77 -99 l-7
-22 298 -3 298 -3 56 -26 c79 -37 133 -90 171 -167 l33 -67 3 -367 c3 -407 -1
-451 -57 -531 -41 -60 -68 -82 -136 -114 l-60 -28 -803 -5 -804 -5 -25 -30
c-20 -25 -23 -38 -20 -79 4 -40 11 -55 36 -78 l31 -28 2061 0 c1648 0 2059 3
2052 13 -6 6 -30 37 -55 68 -25 31 -56 75 -68 98 -13 22 -28 41 -34 42 -6 0
-380 0 -831 -1 -581 -1 -836 2 -875 11 -134 27 -227 127 -250 265 -13 77 -12
670 1 754 18 118 79 198 189 249 l55 26 511 0 511 0 85 -42 c52 -26 99 -58
122 -83 l36 -40 225 0 225 0 4 23 c3 12 7 67 8 121 l3 100 -77 38 -78 37
-1212 3 c-667 2 -1280 1 -1363 -2z"/>
<path d="M2062 2671 c-93 -32 -195 -139 -224 -234 -7 -23 -13 -80 -13 -127 0
-73 4 -94 29 -143 34 -70 110 -147 179 -182 l51 -25 803 0 803 0 0 365 0 365
-787 0 c-736 -1 -792 -2 -841 -19z"/>
<path d="M4360 2325 l0 -365 474 0 c514 0 508 -1 576 57 62 52 70 85 70 304 0
189 -1 197 -25 246 -26 51 -72 91 -128 112 -18 7 -193 11 -498 11 l-469 0 0
-365z"/>
<path d="M7655 2324 c4 -142 10 -276 14 -297 l6 -37 438 146 c240 81 437 150
437 154 0 3 -30 16 -67 28 -95 32 -555 177 -690 218 -61 19 -119 37 -128 40
-16 6 -17 -11 -10 -252z"/>
<path d="M5756 2488 c18 -97 -1 -392 -32 -505 l-6 -23 150 0 150 0 6 63 c3 34
10 139 16 232 6 94 12 191 15 218 l6 47 -156 0 -155 0 6 -32z"/>
<path d="M7670 1658 c0 -11 -29 -82 -77 -195 -4 -10 45 -13 227 -13 l232 0 34
34 c29 29 34 41 34 81 0 38 -5 52 -29 76 l-29 29 -196 0 c-150 0 -196 -3 -196
-12z"/>
</g>
</svg>
